<svg xmlns="http://www.w3.org/2000/svg" xmlns:xlink="http://www.w3.org/1999/xlink" width="136" height="184" viewBox="0 0 136 184"><defs><clipPath id="b"><rect width="136" height="184"/></clipPath></defs><g id="a" clip-path="url(#b)"><rect width="136" height="184" fill="#fff"/><path d="M0,0H298V253H0Z" transform="translate(-58 -24)" fill="#071a52"/><g transform="translate(-1802 -10)"><g transform="translate(1980.026 151.917) rotate(173)"><g transform="translate(0 0)"><path d="M143.587,0S-55.47,90.967,15.163,148.758,143.587,0,143.587,0Z" fill="#349a3e" stroke="#707070" stroke-width="1"/></g><path d="M0,144.477,132.7,0S101.669,115.581,49.229,155.179C13.913,166.951,0,144.477,0,144.477Z" transform="translate(10.882 0)" fill="#2fa84f" stroke="#707070" stroke-width="1"/></g><g transform="translate(1933.003 60.202) rotate(173)"><path d="M62.148,0S-24.009,39.373,6.563,64.386,62.148,0,62.148,0Z" transform="matrix(0.883, 0.469, -0.469, 0.883, 32.301, 0)" fill="#349a3e" stroke="#707070" stroke-width="1"/><path d="M0,62.533,57.438,0S44,50.027,21.308,67.165C6.022,72.261,0,62.533,0,62.533Z" transform="matrix(0.883, 0.469, -0.469, 0.883, 36.46, 2.211)" fill="#2fa84f" stroke="#707070" stroke-width="1"/></g></g></g></svg>