<svg xmlns="http://www.w3.org/2000/svg" width="2000.108" height="1176.743" viewBox="0 0 2000.108 1176.743"><g transform="translate(173.838 -4011.173)"><g transform="matrix(-0.391, -0.921, 0.921, -0.391, 1603.464, 4781.352)"><g transform="translate(0 0)"><path d="M-171.07-634.425s-157.356,71.91-101.52,117.594S-171.07-634.425-171.07-634.425Z" transform="translate(284.577 634.425)" fill="#349a3e" stroke="#707070" stroke-width="1"/></g><path d="M-256.528-520.215l104.9-114.21s-24.534,91.368-65.988,122.67C-245.53-502.449-256.528-520.215-256.528-520.215Z" transform="translate(265.131 634.425)" fill="#2fa84f" stroke="#707070" stroke-width="1"/></g><g transform="matrix(0.946, -0.326, 0.326, 0.946, 139.116, 4295.633)"><g transform="translate(0 0)"><path d="M-203.856-634.425s-111.905,51.139-72.2,83.628S-203.856-634.425-203.856-634.425Z" transform="translate(284.577 634.425)" fill="#349a3e" stroke="#707070" stroke-width="1"/></g><path d="M-256.528-553.2l74.6-81.221s-17.448,64.977-46.928,87.238C-248.707-540.569-256.528-553.2-256.528-553.2Z" transform="translate(262.646 634.425)" fill="#2fa84f" stroke="#707070" stroke-width="1"/></g><path d="M975.6,4040.585s-367.8,272-27.651,382.646,719.739,115.255,764.106,23.051-49.3-484.07-414.1-230.51,9.859,594.716-350.01,576.275S489.488,4455.5,445.121,4372.519s-404.237-534.782-581.706-78.373-216.908,852.887,108.454,908.208,897.208-152.136,976.084,0" transform="translate(101 -27)" fill="none" stroke="#17b978" stroke-width="6" stroke-dasharray="64 59"/></g></svg>