<svg xmlns="http://www.w3.org/2000/svg" xmlns:xlink="http://www.w3.org/1999/xlink" width="1590" height="471" viewBox="0 0 1590 471"><defs><style>.a{clip-path:url(#b);}.b{fill:#349a3e;}.b,.c{stroke:#707070;}.c{fill:#2fa84f;}.d{fill:#fff;}</style><clipPath id="b"><rect width="1590" height="471"/></clipPath></defs><g id="a" class="a"><rect class="d" width="1590" height="471"/><g transform="matrix(0.07, -0.998, 0.998, 0.07, 18.488, 220.792)"><g transform="translate(0 0)"><path class="b" d="M-171.07-634.425s-157.356,71.91-101.52,117.594S-171.07-634.425-171.07-634.425Z" transform="translate(284.577 634.425)"/></g><path class="c" d="M-256.528-520.215l104.9-114.21s-24.534,91.368-65.988,122.67C-245.53-502.449-256.528-520.215-256.528-520.215Z" transform="translate(265.131 634.425)"/></g><g transform="translate(1586.111 437.005) rotate(173)"><g transform="translate(0 0)"><path class="b" d="M-171.07-634.425s-157.356,71.91-101.52,117.594S-171.07-634.425-171.07-634.425Z" transform="translate(284.577 634.425)"/></g><path class="c" d="M-256.528-520.215l104.9-114.21s-24.534,91.368-65.988,122.67C-245.53-502.449-256.528-520.215-256.528-520.215Z" transform="translate(265.131 634.425)"/></g><g transform="translate(1302.053 36.169) rotate(103)"><g transform="translate(0 0)"><path class="b" d="M-220.169-634.425s-89.289,40.8-57.606,66.727S-220.169-634.425-220.169-634.425Z" transform="translate(284.577 634.425)"/></g><path class="c" d="M-256.528-569.619-197-634.425s-13.921,51.845-37.444,69.607C-250.288-559.538-256.528-569.619-256.528-569.619Z" transform="translate(261.41 634.425)"/></g></g></svg>